<svg xmlns="http://www.w3.org/2000/svg" width="78.392" height="10.175" viewBox="0 0 78.392 10.175" fill="white">
  <path id="Path_3" data-name="Path 3" d="M2018.6-1700.743v0a4.615,4.615,0,0,1-.159-.638,5.129,5.129,0,0,1-.068-1.228c.014-.122.034-.244.058-.366a3.976,3.976,0,0,1,.125-.434,4.9,4.9,0,0,1,.546-1.007c.037-.051.081-.1.122-.149a.518.518,0,0,1,.041.044c.068.081.136.159.2.244v0a3.213,3.213,0,0,1,.3.455,1.715,1.715,0,0,1,.105.288c.02.081.041.159.058.241.013.119.027.237.037.359l0,0c0,.054.007.112.007.17a.992.992,0,0,1,0,.142c0,.122,0,.241-.013.363s-.017.241-.027.363c-.02.166-.044.329-.074.492h0a4.4,4.4,0,0,1-.159.56c-.024.061-.051.119-.078.176v0a2.042,2.042,0,0,1-.136.234,5.72,5.72,0,0,1-.468.563l-.02-.034c-.071-.115-.136-.238-.2-.356-.075-.159-.139-.322-.2-.485Zm-20.057,1.143c-.366.227-.726.465-1.089.692-.18.112-.359.22-.543.322s-.363.193-.549.285-.353.156-.529.227c-.095.037-.187.075-.281.105-.119.041-.237.081-.359.119v0c-.376.112-.756.2-1.143.278q-.168.03-.336.051c-.061.007-.122.017-.183.02s-.149.01-.224.013v0c-.224.01-.448.007-.668,0a3.473,3.473,0,0,1-.794-.132,1.907,1.907,0,0,1-.261-.136c-.01-.01-.02-.017-.031-.027a1.8,1.8,0,0,1-.17-.261,1.6,1.6,0,0,1-.064-.217,1.809,1.809,0,0,1-.014-.234.632.632,0,0,1,.014-.085.888.888,0,0,1,.051-.186,2.567,2.567,0,0,1,.207-.38,4.822,4.822,0,0,1,.763-.814c.1-.085.2-.163.312-.241a2.661,2.661,0,0,1,.329-.19,3.8,3.8,0,0,1,.471-.193,3.765,3.765,0,0,1,.536-.132c.224-.037.451-.064.678-.085a5.072,5.072,0,0,1,.678,0,8.124,8.124,0,0,1,.95.149c.142.031.285.068.427.1.265.064.529.132.79.2.214.054.431.115.644.18s.451.146.678.224c.058.02.119.044.176.068-.159.091-.315.183-.471.281Zm4.429-2.055c.3-.214.6-.427.906-.634s.641-.4.967-.59c.159-.095.322-.193.475-.3s.305-.21.455-.315.292-.207.441-.309c.068-.047.139-.092.214-.136s.146-.085.221-.122l0-.007a3.925,3.925,0,0,1,.5-.2c.18-.051.359-.1.539-.139.153-.027.3-.051.454-.068.1-.01.2-.021.3-.024.041,0,.085,0,.125,0s.092,0,.139.007c.112.014.227.027.339.047a2.857,2.857,0,0,1,.4.1,2.967,2.967,0,0,1,.441.22,2.3,2.3,0,0,1,.3.271,2.645,2.645,0,0,1,.285.414,1.673,1.673,0,0,1,.095.278.952.952,0,0,1,.007.1,1.254,1.254,0,0,1-.064.251c-.034.085-.071.166-.112.251h0a2.915,2.915,0,0,1-.183.312c-.068.095-.139.187-.217.278a2.8,2.8,0,0,1-.261.268,2.024,2.024,0,0,1-.99.471l-.22.034c-.092.014-.19.02-.281.027-.153.017-.309.024-.465.034-.37.02-.739.037-1.109.048v0a17.3,17.3,0,0,1-1.964-.061c-.231-.021-.461-.044-.692-.078-.285-.041-.566-.092-.848-.146-.156-.031-.312-.064-.464-.105.088-.058.18-.122.271-.187Zm12.24.278-.014.01Zm.007-.007h0l-.007.007Zm.017-.014-.014.014Zm18.364-.305c-.532.068-1.065.122-1.6.176-.512.051-1.021.085-1.536.115l-.322.017c-.136.007-.271.017-.407.017-.153,0-.3.007-.454.007-.136,0-.271-.007-.407-.01a1.272,1.272,0,0,1-.159-.01l.007,0a1.5,1.5,0,0,1-.783-.254,1.537,1.537,0,0,1-.224-.193,2.293,2.293,0,0,1-.254-.393c-.017-.041-.034-.078-.048-.119s-.034-.108-.047-.163-.01-.081-.014-.122a.805.805,0,0,1,0-.18,1.477,1.477,0,0,1,.047-.271l.007-.02v0a.993.993,0,0,1,.054-.105c.031-.037.068-.075.1-.108a1.455,1.455,0,0,1,.163-.105c.092-.044.187-.078.278-.112a3.5,3.5,0,0,1,.373-.085,5.7,5.7,0,0,1,1.224-.088,3.554,3.554,0,0,1,.682.125c.125.037.251.078.38.112.18.054.356.119.536.18s.359.136.536.214c.092.041.19.078.278.125.105.054.21.1.309.163s.187.108.275.166l.3.2.285.193c.091.065.19.122.285.18.166.105.339.2.512.3-.125.02-.251.037-.376.054Zm4.385,1.886c.237-.068.478-.132.719-.193.258-.064.515-.132.773-.2.224-.061.444-.125.668-.2.488-.149.977-.3,1.479-.41.136-.027.268-.058.4-.085l.441-.068c.068-.01.142-.014.21-.02l.258-.02c.075-.007.153,0,.224,0s.156-.007.234,0c.183.01.366.014.549.027h0a5.218,5.218,0,0,1,.607.085,3.951,3.951,0,0,1,.583.166c.112.041.22.085.329.132a3.63,3.63,0,0,1,.37.214c.1.075.2.153.3.237a3.286,3.286,0,0,1,.339.349,3.587,3.587,0,0,1,.4.6,2,2,0,0,1,.081.2l0,0a1.97,1.97,0,0,1,.058.2,1.516,1.516,0,0,1,.01.248.665.665,0,0,1-.017.119c-.01.047-.024.095-.037.139a3,3,0,0,1-.3.566,1.52,1.52,0,0,1-.119.139,2.419,2.419,0,0,1-.363.244,2.626,2.626,0,0,1-.62.187l.064-.01-.159.031-.244.041c-.075.01-.153.02-.227.027-.156.01-.312.02-.471.02s-.329,0-.492,0-.336-.02-.5-.031h.02c-.068-.007-.139-.017-.207-.024s-.115-.017-.173-.027c-.078-.017-.156-.027-.234-.044s-.163-.041-.241-.061v0a7.7,7.7,0,0,1-.821-.268c-.173-.064-.343-.132-.512-.2s-.356-.156-.532-.237a8.682,8.682,0,0,1-1.024-.583c-.17-.109-.336-.217-.512-.315s-.359-.193-.546-.285-.376-.176-.563-.268c-.095-.048-.19-.095-.281-.146-.075-.041-.142-.085-.214-.129l-.054-.041c.112-.034.23-.071.346-.105Zm-15.448,2.51c.125.007.254.014.38.017.251,0,.5,0,.746,0,.516-.01,1.028-.041,1.54-.075s1.028-.078,1.536-.142c.488-.061.97-.149,1.452-.227.516-.081,1.031-.169,1.55-.251q.372-.061.743-.112c.251-.034.5-.061.753-.092.509-.061,1.014-.125,1.519-.2.271-.041.543-.095.814-.142.251-.047.5-.1.746-.159s.5-.129.753-.2c.234-.061.465-.129.692-.2.258-.078.516-.159.773-.248.183-.061.366-.125.546-.187.1.078.193.152.292.224l0-.007a4.62,4.62,0,0,0,.7.4c.234.115.471.224.7.339s.444.244.658.38c.112.075.224.142.339.214s.251.153.376.224c.217.125.444.23.672.339.186.085.38.163.57.237s.376.143.566.21.37.125.56.18l0,0c.2.054.4.1.6.136.092.017.19.024.285.037.112.017.224.02.336.027.207.017.417.02.627.024.18,0,.363,0,.543-.017a4.713,4.713,0,0,0,.577-.075c.139-.027.281-.054.424-.085l0,0a2.378,2.378,0,0,0,.655-.261,2.141,2.141,0,0,0,.183-.125v0a1.353,1.353,0,0,0,.156-.129,2.013,2.013,0,0,0,.278-.373,2.922,2.922,0,0,0,.224-.465,1.956,1.956,0,0,0,.075-.241,1.5,1.5,0,0,0,.031-.305,1.672,1.672,0,0,0-.071-.448,2.7,2.7,0,0,0-.193-.444,3.208,3.208,0,0,0-.288-.444,4.5,4.5,0,0,0-.376-.427,3.422,3.422,0,0,0-.821-.6,3.405,3.405,0,0,0-.471-.2c-.183-.064-.366-.119-.556-.166a7.422,7.422,0,0,0-1.367-.139c-.044,0-.092,0-.136,0-.088,0-.176,0-.265,0-.135,0-.268.02-.4.031-.112.01-.224.027-.339.044-.139.02-.278.041-.414.071-.268.058-.539.112-.8.187s-.526.149-.787.227c-.224.068-.444.136-.668.2-.5.139-.994.254-1.492.39-.254.068-.5.143-.753.224-.044.014-.085.027-.129.044l-.054-.051c-.183-.166-.363-.336-.553-.492h0a13.445,13.445,0,0,0-1.221-.868c.268-.054.539-.112.8-.173.512-.119,1.017-.254,1.526-.387.539-.142,1.079-.285,1.614-.431.505-.136,1.011-.278,1.519-.4.488-.122.984-.234,1.479-.329.387-.075.77-.153,1.156-.224.2-.037.4-.074.607-.1.258-.041.522-.081.783-.119s.532-.075.8-.109.539-.064.811-.092c.227-.024.451-.044.678-.068l.454-.051c.129-.014.254-.034.383-.051.489-.064.973-.17,1.455-.268l.305-.051c.115-.021.234-.034.349-.048.092-.01.187-.02.278-.027s.19-.02.285-.024c.135-.007.271-.01.407-.017.109-.007.214,0,.322,0s.2,0,.292.007l.383.02c.18.02.363.034.543.061.1.017.21.027.312.051l.376.081c.095.02.19.051.281.075s.166.047.251.075c.112.037.227.068.343.109s.217.078.322.115h0a10.71,10.71,0,0,1,2.079.963c.081.058.163.119.241.187h0a2.738,2.738,0,0,1,.265.258,2.816,2.816,0,0,1,.176.234v0a1.922,1.922,0,0,1,.136.227,2.2,2.2,0,0,1,.187.58q.035.219.051.438c0,.119,0,.241-.007.359s-.021.207-.031.312a3.11,3.11,0,0,1-.159.726c-.041.095-.081.183-.129.275a2.564,2.564,0,0,1-.142.231h0a3.439,3.439,0,0,1-.482.536,3.64,3.64,0,0,1-.719.482,3.409,3.409,0,0,1-.353.136,4.006,4.006,0,0,1-.4.095c-.143.024-.282.044-.427.054-.1.007-.2.007-.3.007-.139,0-.278-.01-.414-.017l.051.007-.323-.031a3.376,3.376,0,0,1-.77-.173l.007,0a2.805,2.805,0,0,1-.278-.119h0a3.069,3.069,0,0,1-.37-.214c-.071-.051-.136-.105-.2-.163a1.986,1.986,0,0,1-.187-.193,3.046,3.046,0,0,1-.295-.451,1.875,1.875,0,0,1-.132-.417c-.007-.044-.014-.092-.017-.135a1.231,1.231,0,0,1,0-.22,2.525,2.525,0,0,1,.132-.59,3.272,3.272,0,0,1,.309-.59,2.081,2.081,0,0,1,.2-.244,2.019,2.019,0,0,1,.356-.234,2.724,2.724,0,0,1,.281-.1.488.488,0,0,1,.139-.017.465.465,0,0,1,.119.027.507.507,0,0,1,.1.044.953.953,0,0,1,.125.112c.038.047.071.092.1.142v0a.123.123,0,0,0,.207-.132,1.465,1.465,0,0,0-.23-.271.83.83,0,0,0-.315-.153.6.6,0,0,0-.19-.01.973.973,0,0,0-.2.044,1.87,1.87,0,0,0-.478.227,1.743,1.743,0,0,0-.56.644,3.407,3.407,0,0,0-.268.624,2.235,2.235,0,0,0-.064.258,1.822,1.822,0,0,0-.044.383,1.6,1.6,0,0,0,.064.454,1.845,1.845,0,0,0,.207.485,2.338,2.338,0,0,0,.275.383,2.3,2.3,0,0,0,.363.339,3.285,3.285,0,0,0,.926.475,3.668,3.668,0,0,0,.736.146c.149.017.295.031.444.044s.281.017.421.013h0a3.947,3.947,0,0,0,1.014-.152,2.978,2.978,0,0,0,.827-.387,4.5,4.5,0,0,0,.383-.285,2.96,2.96,0,0,0,.387-.387,2.812,2.812,0,0,0,.7-1.665c.02-.19.041-.38.051-.57v0a3.17,3.17,0,0,0-.034-.543,3.945,3.945,0,0,0-.132-.57,2.91,2.91,0,0,0-.193-.414,2.55,2.55,0,0,0-.255-.37,3.31,3.31,0,0,0-.339-.349,3.81,3.81,0,0,0-.461-.336,6,6,0,0,0-.58-.315c-.125-.064-.254-.122-.387-.18-.109-.051-.22-.091-.333-.136s-.213-.085-.322-.125q-.386-.148-.773-.285c-.129-.047-.265-.085-.394-.125s-.265-.075-.4-.108-.244-.054-.366-.082-.264-.047-.4-.068c-.112-.017-.221-.027-.336-.041-.132-.01-.268-.027-.4-.034s-.282-.02-.424-.02l-.485-.007a1.214,1.214,0,0,0-.159.007c-.1.007-.2.01-.3.013-.143.007-.282.024-.424.037-.553.058-1.1.18-1.645.285-.136.02-.271.044-.407.068s-.258.037-.387.054c-.241.031-.481.054-.722.078-.3.027-.6.061-.9.092-.268.027-.532.064-.8.1-.237.027-.478.061-.716.1-.254.037-.509.075-.76.119-.57.1-1.136.21-1.7.319-.509.1-1.011.214-1.513.339s-1.007.265-1.513.4c-.526.143-1.055.281-1.58.421-.248.064-.488.132-.733.193-.281.071-.56.139-.838.2s-.576.125-.861.183c-.122.021-.244.041-.37.064-.261-.149-.526-.292-.79-.437-.224-.125-.437-.258-.648-.4-.1-.064-.2-.132-.3-.2l-.187-.122c-.058-.037-.119-.068-.176-.105s-.088-.054-.136-.082c-.071-.034-.139-.068-.21-.1-.125-.061-.254-.115-.383-.17-.109-.047-.221-.085-.329-.129s-.244-.092-.366-.132-.251-.088-.376-.125l-.448-.132-.01,0a4.624,4.624,0,0,0-1.964-.068c-.156.024-.309.058-.464.095h0a1.929,1.929,0,0,0-.454.17,1.96,1.96,0,0,0-.2.125,1.052,1.052,0,0,0-.142.132.906.906,0,0,0-.119.163,1.151,1.151,0,0,0-.108.278,1.225,1.225,0,0,0-.034.251,1.488,1.488,0,0,0-.01.248,1.113,1.113,0,0,0,.034.237,2.066,2.066,0,0,0,.075.248,2.18,2.18,0,0,0,.234.438,1.607,1.607,0,0,0,.349.376,1.744,1.744,0,0,0,.421.244,1.953,1.953,0,0,0,.414.125,4.321,4.321,0,0,0,.692.054c.241.007.481.007.722,0,.532-.024,1.065-.047,1.6-.092s1.062-.1,1.594-.156,1.051-.132,1.573-.214l.068-.01c.336.2.658.414.977.634.2.142.4.285.587.444.149.125.3.254.441.387l-.061.02c-.475.163-.953.312-1.435.451-.336.092-.668.18-1,.265s-.658.142-.987.2c-.505.088-1.011.156-1.519.22-.482.061-.963.108-1.441.18-.526.078-1.048.166-1.57.254-.482.078-.96.163-1.441.234q-.616.1-1.231.152c-.4.037-.8.061-1.207.085a21.275,21.275,0,0,1-2.326.034c-.149-.014-.3-.027-.451-.054-.081-.017-.163-.034-.241-.054s-.132-.041-.2-.064h0a6.693,6.693,0,0,1-.746-.343c-.251-.139-.5-.292-.74-.448l0,0c-.064-.044-.129-.092-.19-.136h0a2.868,2.868,0,0,1-.5-.454c-.027-.034-.051-.071-.078-.105.061-.064.122-.129.18-.2h0a4.674,4.674,0,0,0,.41-.519c.044-.064.085-.132.126-.2a1.524,1.524,0,0,0,.1-.214c.061-.149.109-.3.156-.454a4.045,4.045,0,0,0,.149-.875c.01-.139.021-.278.034-.417,0-.064,0-.132.007-.193s0-.122,0-.183l-.007-.227c0-.061-.01-.122-.017-.183v-.007a3.606,3.606,0,0,0-.068-.424,1.992,1.992,0,0,0-.129-.41,1.976,1.976,0,0,0-.207-.37c-.041-.058-.078-.119-.122-.169-.122-.153-.251-.3-.383-.444a5.29,5.29,0,0,1,.417-.41c.075-.061.153-.119.231-.176v0a2.15,2.15,0,0,1,.309-.18,3.228,3.228,0,0,1,.61-.2,2.684,2.684,0,0,1,.522-.031c.047,0,.092.01.136.017a1.7,1.7,0,0,1,.258.064c.065.027.129.054.193.088a1.847,1.847,0,0,1,.224.132,5,5,0,0,1,.536.461c.078.078.153.163.231.244.034.037.068.078.1.115a2.153,2.153,0,0,1,.261.41,2.719,2.719,0,0,1,.19.6,1.083,1.083,0,0,1,.013.109v0a.945.945,0,0,1,0,.2,1.807,1.807,0,0,1-.078.353,2.154,2.154,0,0,1-.17.329,1.116,1.116,0,0,1-.078.1.789.789,0,0,1-.142.139,3.027,3.027,0,0,1-.444.305.591.591,0,0,1-.1.037.942.942,0,0,1-.139,0,1.8,1.8,0,0,1-.349-.078.136.136,0,0,1,.034.013l-.047-.017,0,0a.235.235,0,0,0-.166-.01.214.214,0,0,0-.136.268.2.2,0,0,0,.105.122c.061.024.119.047.176.068.078.024.153.047.231.064s.139.017.21.021a.569.569,0,0,0,.187-.021,1.3,1.3,0,0,0,.227-.085c.058-.034.112-.068.166-.105a4.042,4.042,0,0,0,.407-.312,1.669,1.669,0,0,0,.288-.366,2.077,2.077,0,0,0,.193-.444,1.831,1.831,0,0,0,.068-.451,1.809,1.809,0,0,0-.068-.522,2.576,2.576,0,0,0-.315-.76,2.946,2.946,0,0,0-.359-.461c-.092-.1-.183-.2-.278-.292v0a3.474,3.474,0,0,0-.7-.539,2,2,0,0,0-.943-.258,2.452,2.452,0,0,0-.5.041,2.748,2.748,0,0,0-.549.156,3.109,3.109,0,0,0-.427.207,3.117,3.117,0,0,0-.4.288c-.156.136-.309.278-.451.427a4.864,4.864,0,0,0-1.038-.78,3.049,3.049,0,0,0-.607-.251,3.244,3.244,0,0,0-.621-.142,6.4,6.4,0,0,0-.763-.047c-.255,0-.512.014-.767.034-.122.01-.244.02-.366.037l-.193.031a1.126,1.126,0,0,0-.112.02,2.228,2.228,0,0,0-.292.085c-.078.027-.153.064-.227.1-.058.024-.119.051-.173.078s-.139.068-.207.1-.112.065-.166.1c-.078.044-.152.088-.227.136a1.892,1.892,0,0,0-.356.3,3.023,3.023,0,0,0-.264.356,2.134,2.134,0,0,0-.237.454,2.013,2.013,0,0,0-.109.421,2.854,2.854,0,0,0-.021.482,1.581,1.581,0,0,0,.034.254c.01.068.027.136.041.207a3.04,3.04,0,0,0,.1.343,3.563,3.563,0,0,0,.723,1.377,2.092,2.092,0,0,0,.254.237,2.524,2.524,0,0,0,.217.156,1.576,1.576,0,0,0,.251.122,1.963,1.963,0,0,0,.39.132,2.321,2.321,0,0,0,.336.054,2.049,2.049,0,0,0,.431,0c.3-.027.495-.309.617-.556h0a1.649,1.649,0,0,0,.119-.336,1.69,1.69,0,0,0,.037-.258,1.794,1.794,0,0,0-.014-.356,2.493,2.493,0,0,0-.105-.437.248.248,0,0,0-.309-.153.244.244,0,0,0-.153.309,3.009,3.009,0,0,1,.075.292.91.91,0,0,1,.014.136.945.945,0,0,1,0,.2c0,.037-.01.078-.017.115h0a1.394,1.394,0,0,1-.047.17,1.531,1.531,0,0,1-.129.258l-.027.037a.576.576,0,0,1-.061.068c-.014.007-.024.017-.037.024l-.014,0a2.589,2.589,0,0,1-.326,0q-.107-.01-.214-.03-.127-.031-.254-.071a2.841,2.841,0,0,1-.356-.17,3.04,3.04,0,0,1-.349-.309,2.173,2.173,0,0,1-.183-.254c-.064-.1-.122-.2-.176-.309a6.14,6.14,0,0,1-.339-1.024,2.429,2.429,0,0,1-.037-.312,2,2,0,0,1,.007-.248c.007-.054.014-.105.024-.156.017-.078.037-.156.061-.231a1.67,1.67,0,0,1,.112-.237c.044-.078.091-.149.139-.22a2.408,2.408,0,0,1,.275-.315.879.879,0,0,1,.088-.068,1.891,1.891,0,0,1,.193-.122c.054-.034.115-.068.173-.1.088-.051.183-.095.275-.142.068-.027.132-.058.2-.085a1.605,1.605,0,0,1,.353-.122,6.9,6.9,0,0,1,.878-.095c.166-.007.336-.014.5-.017a3.851,3.851,0,0,1,.4.017v0a3.3,3.3,0,0,1,.516.071,1.96,1.96,0,0,1,.241.068c.075.02.146.044.217.071l0,0c.146.061.285.129.424.2.071.041.142.085.21.129s.156.115.234.177c.1.078.19.156.285.237.048.041.092.088.136.132-.064.085-.129.169-.19.258h0a4.866,4.866,0,0,0-.556,1,3.8,3.8,0,0,0-.234.9,4.161,4.161,0,0,0-.031.505,5.8,5.8,0,0,0,.037.644c.02.173.054.346.092.516v0a4.031,4.031,0,0,0,.132.492,4.086,4.086,0,0,0,.315.729c.024.051.051.1.078.149.041.064.081.132.122.2l.01.013c-.112.1-.22.21-.332.309-.18.149-.366.292-.56.424v0a5.274,5.274,0,0,1-.644.37c-.115.054-.227.105-.346.149l-.359.136c-.18.068-.363.119-.546.18-.349.112-.7.21-1.051.3-.166.044-.329.088-.5.129-.19.047-.383.095-.573.136s-.38.085-.57.122l-.583.112-.543.092c-.2.034-.4.058-.593.085-.18.027-.366.041-.546.061-.064.007-.132.017-.193.021l-.349.02c-.349.02-.7.034-1.051.027l-.359-.007c-.068,0-.132,0-.2,0-.193-.01-.383-.02-.576-.034l-.451-.051c-.119-.014-.234-.031-.349-.047-.149-.024-.3-.041-.448-.068-.173-.034-.349-.064-.522-.1-.265-.047-.522-.112-.783-.18-.281-.071-.56-.149-.834-.244-.217-.081-.431-.166-.644-.261-.234-.1-.468-.21-.688-.332s-.451-.261-.668-.4-.407-.265-.61-.39c-.227-.142-.461-.268-.7-.39s-.471-.22-.709-.329c-.22-.1-.444-.187-.668-.275.085-.047.17-.1.251-.146.451-.258.912-.505,1.363-.763.142-.081.285-.166.424-.258.373.095.746.18,1.123.258l-.007.01a14.722,14.722,0,0,0,1.54.2c.529.041,1.055.061,1.584.058s1.065-.027,1.6-.064c.132-.01.265-.02.393-.034s.275-.034.41-.054l0,0a2.872,2.872,0,0,0,.417-.1,2.763,2.763,0,0,0,.37-.166,2.546,2.546,0,0,0,.59-.434,2.421,2.421,0,0,0,.234-.254,2.473,2.473,0,0,0,.237-.322c.064-.1.125-.2.183-.312l0,0a2.937,2.937,0,0,0,.156-.37,1.171,1.171,0,0,0,.075-.356,1.143,1.143,0,0,0-.061-.37,2.051,2.051,0,0,0-.2-.417c-.044-.071-.1-.139-.149-.207a2.121,2.121,0,0,0-.655-.573,2.716,2.716,0,0,0-.654-.258,3.39,3.39,0,0,0-.783-.109,2.458,2.458,0,0,0-.353.02c-.125.014-.251.027-.377.051-.142.024-.281.051-.42.081s-.254.064-.38.1h0a4.173,4.173,0,0,0-.743.305c-.105.058-.21.122-.312.19s-.21.143-.315.217c-.2.142-.4.292-.61.431-.427.292-.885.526-1.316.807s-.838.583-1.255.872c-.139.1-.282.193-.427.288-.132-.034-.261-.068-.39-.1-.22-.058-.441-.122-.658-.19-.258-.078-.519-.156-.777-.241s-.516-.166-.773-.254-.522-.183-.783-.271c-.112-.041-.227-.085-.343-.119l-.478-.142c-.261-.078-.526-.143-.79-.21s-.516-.125-.77-.19-.516-.139-.773-.207c-.509-.139-1.007-.295-1.513-.441-.254-.075-.512-.146-.77-.217s-.5-.125-.753-.19-.505-.112-.76-.17-.536-.112-.8-.17l-.783-.163c-.109-.024-.217-.037-.326-.054-.125-.024-.251-.051-.373-.064-.271-.034-.539-.074-.811-.095l-.516-.041c-.1-.007-.2-.017-.305-.02-.17,0-.339-.007-.512-.014-.109,0-.217,0-.326.007l-.421.01c-.044,0-.092.01-.136.014l-.312.031a2.5,2.5,0,0,0-.278.034l-.5.081h0a9.013,9.013,0,0,0-.953.214c-.166.044-.326.1-.485.156a3.757,3.757,0,0,0-.522.265c-.18.1-.349.22-.516.336-.1.068-.2.136-.3.21-.122.091-.248.183-.37.278l0,0a7.73,7.73,0,0,0-.834.729c-.156.156-.3.326-.441.5-.115.142-.234.288-.346.434s-.2.265-.285.4a2.706,2.706,0,0,0-.248.471c-.061.153-.112.312-.163.468a4.068,4.068,0,0,0-.142.6,3.175,3.175,0,0,0-.044.475.671.671,0,0,0,0,.081l0,0a2.841,2.841,0,0,0,.044.451,3.227,3.227,0,0,0,.332.95,2.922,2.922,0,0,0,.58.753,2.793,2.793,0,0,0,.373.288,2.175,2.175,0,0,0,.485.227,2.457,2.457,0,0,0,.644.1,3.42,3.42,0,0,0,.722-.047,6.841,6.841,0,0,0,1.421-.366,3.914,3.914,0,0,0,.6-.288,3.623,3.623,0,0,0,.5-.38,3.586,3.586,0,0,0,.861-1.116,2.637,2.637,0,0,0,.18-.529,3.146,3.146,0,0,0,.095-.59,2.153,2.153,0,0,0-.058-.641,2.636,2.636,0,0,0-.244-.638,1.568,1.568,0,0,0-.326-.434,1.074,1.074,0,0,0-.21-.159,1.152,1.152,0,0,0-.139-.081,1.419,1.419,0,0,0-.166-.061,2.258,2.258,0,0,0-.583-.1.788.788,0,0,0-.251.014,3.2,3.2,0,0,0-.4.169.123.123,0,0,0-.075.153.121.121,0,0,0,.156.078,3.657,3.657,0,0,1,.39-.163,1.709,1.709,0,0,1,.265,0,2.559,2.559,0,0,1,.5.105,2.1,2.1,0,0,1,.193.1.142.142,0,0,1-.027-.02c.044.03.088.064.129.1a1.247,1.247,0,0,1,.136.129c.047.054.088.112.132.17v0c.041.064.074.132.109.2a2.74,2.74,0,0,1,.2.631c.014.088.02.176.027.268a1.656,1.656,0,0,1-.01.258,3.291,3.291,0,0,1-.166.722,2.984,2.984,0,0,1-.271.515,4.292,4.292,0,0,1-.265.343,3.632,3.632,0,0,1-.383.376q-.153.127-.315.244a2.392,2.392,0,0,1-.349.2,6.324,6.324,0,0,1-1.414.434h0l-.03.007.014,0c-.163.027-.326.051-.492.068h0a3.251,3.251,0,0,1-.546,0c-.078-.007-.153-.017-.227-.031h0a1.639,1.639,0,0,1-.224-.058c-.071-.024-.139-.054-.21-.085a2.225,2.225,0,0,1-.271-.163,3.119,3.119,0,0,1-.4-.359c-.081-.1-.159-.2-.231-.309a3.273,3.273,0,0,1-.19-.336c-.047-.1-.085-.2-.125-.309l0,0a2.661,2.661,0,0,1-.1-.393,2.8,2.8,0,0,1-.037-.336,2.55,2.55,0,0,1,.007-.319,4.19,4.19,0,0,1,.1-.577,4.689,4.689,0,0,1,.173-.563,2.822,2.822,0,0,1,.146-.326,2.923,2.923,0,0,1,.22-.353l-.014.017.017-.024.01-.013,0,.01c.166-.224.342-.441.519-.658a6.837,6.837,0,0,1,.787-.811c.285-.241.59-.455.889-.672.105-.078.22-.149.329-.22l0,0a6.024,6.024,0,0,1,.658-.38,6.038,6.038,0,0,1,1.306-.373c.258-.047.522-.085.784-.125.088-.014.18-.017.268-.024l.356-.031c.034,0,.068,0,.1,0,.075,0,.149,0,.224,0,.109,0,.214-.007.326-.007s.207.007.312.01.241.007.359.014l-.054-.007c.268.024.539.048.807.068.136.014.271.037.407.054.115.014.234.024.346.047.261.047.522.092.78.146s.519.109.777.166c.529.115,1.058.227,1.58.363.271.071.543.142.811.22s.519.149.777.227c.5.149,1,.3,1.506.444l.41.112c.119.034.237.061.356.088.258.064.512.129.77.2.136.034.275.068.41.105s.268.078.4.119c.095.027.193.054.292.092.17.058.339.119.509.176.251.085.5.176.756.268s.516.17.773.251c.227.075.461.142.692.21.166.051.336.1.5.146l-.268.153c-.237.136-.478.265-.716.4-.21.119-.421.241-.631.36-.119.068-.237.136-.356.2-.051-.02-.105-.037-.156-.058-.265-.095-.529-.2-.8-.278s-.529-.156-.8-.227c-.224-.061-.444-.119-.671-.173-.414-.1-.824-.2-1.245-.265l-.007,0a5.743,5.743,0,0,0-1.024-.065,6.125,6.125,0,0,0-1.109.136,3.7,3.7,0,0,0-.926.319,3.512,3.512,0,0,0-.437.258,4.371,4.371,0,0,0-.417.332,4.967,4.967,0,0,0-.7.739,3.038,3.038,0,0,0-.244.4,1.509,1.509,0,0,0-.146.5,1.444,1.444,0,0,0,0,.241,1.851,1.851,0,0,0,.037.237,1.371,1.371,0,0,0,.2.441,1.4,1.4,0,0,0,.122.156.743.743,0,0,0,.136.115,1.914,1.914,0,0,0,.343.176,3.329,3.329,0,0,0,.855.156,7.142,7.142,0,0,0,.76.02h0a5.419,5.419,0,0,0,.78-.078c.122-.02.248-.044.366-.071.146-.034.292-.064.438-.1a8.936,8.936,0,0,0,1.407-.482c.125-.054.251-.112.376-.169s.268-.136.4-.207c.224-.119.441-.254.658-.387.444-.271.878-.57,1.326-.838.18-.109.366-.21.553-.315.227.092.458.183.682.281h0a11.457,11.457,0,0,1,1.407.685c.217.129.431.265.641.4s.4.268.6.387c.231.136.465.265.705.38.22.105.441.207.668.292.129.051.258.1.386.146s.271.088.41.129c.227.064.454.125.685.18.139.034.278.064.414.095s.3.058.448.085c.265.051.529.088.8.132.1.017.2.024.3.034.142.017.285.037.427.048.251.013.505.034.76.037.163,0,.322,0,.485.007.125,0,.254,0,.383-.007.105,0,.207,0,.309-.007.18-.01.363-.02.543-.034.258-.014.516-.051.773-.078.129-.014.258-.037.387-.054l.339-.051c.3-.051.6-.105.9-.159.278-.054.553-.112.828-.17.1-.02.2-.047.3-.068.132-.034.268-.061.4-.095.251-.065.505-.126.756-.2.278-.081.553-.159.824-.248.119-.037.237-.068.353-.112.153-.058.305-.112.458-.169l0-.01a5.733,5.733,0,0,0,.7-.332,6.283,6.283,0,0,0,.912-.638c.132-.109.254-.227.38-.343.061.078.122.153.19.227a3.6,3.6,0,0,0,.553.458c.105.075.21.146.319.214l.312.19c.112.068.224.136.339.193a7.583,7.583,0,0,0,.7.309l0,0a3.147,3.147,0,0,0,.766.18c.132.017.268.024.4.034Z" transform="translate(2058.054 -1696.333) rotate(180)"/>
</svg>
